<svg xmlns="http://www.w3.org/2000/svg" height="40" viewBox="0 96 960 960" fill='#bdbdbd' width="40"><path d="M-13.333 829.333v-69.955q0-46.422 46.333-74.9Q79.333 656 153.584 656h10.583q4.5 0 10.166.435-12.333 21.899-18.453 45.4-6.12 23.502-6.12 49.047v78.451H-13.333Zm240 0V751q0-35 18-64.333 18-29.334 52.333-50.667 34.333-21.333 80.862-32.333 46.53-11 101.941-11 56.477 0 102.506 11 46.03 11 80.691 32.333 34.333 21.333 52.333 50.667 18 29.333 18 64.333v78.333H226.667Zm583.333 0v-78.619q0-26.324-6-49.787-6-23.463-17.333-44.442 5.666-.485 10.376-.485h9.624q75.533 0 121.1 28.322 45.566 28.321 45.566 75.345v69.666H810ZM153.216 626.001q-33.549 0-57.383-24.016Q72 577.97 72 544.247q0-34.246 23.878-57.913 23.878-23.666 57.408-23.666 34.047 0 58.047 23.64t24 58.005q0 33.354-23.776 57.521t-58.341 24.167Zm653.333 0q-33.549 0-57.382-24.016-23.833-24.015-23.833-57.738 0-34.246 23.878-57.913 23.877-23.666 57.408-23.666 34.047 0 58.047 23.64t24 58.005q0 33.354-23.776 57.521t-58.342 24.167Zm-326.222-62.334q-55.691 0-94.676-38.985-38.984-38.984-38.984-94.676 0-56.006 38.984-94.506 38.985-38.5 94.676-38.5 56.006 0 94.506 38.5t38.5 94.506q0 55.692-38.5 94.676-38.5 38.985-94.506 38.985Z"/></svg>